<svg width="24" height="24" viewBox="0 0 24 24" fill="none" xmlns="http://www.w3.org/2000/svg">
  <path d="M17.05 12.314c-.018-1.973.868-3.467 2.668-4.566-1.033-1.495-2.598-2.314-4.675-2.457-1.96-.137-4.101 1.168-4.885 1.168-.82 0-2.699-1.126-4.176-1.126C3.659 5.333 1 7.227 1 11.132c0 1.175.221 2.391.664 3.645.591 1.676 2.722 5.79 4.935 5.732 1.175-.028 2.009-.849 3.531-.849 1.481 0 2.236.849 3.531.849 2.233-.032 4.193-3.719 4.756-5.4-3.039-1.442-3.367-4.257-3.367-5.795zm-3.009-6.467c1.013-1.217 1.729-2.902 1.514-4.514-1.663.104-3.602 1.131-4.733 2.459-.978 1.133-1.757 2.818-1.473 4.433 1.752.138 3.608-.953 4.692-2.378z" fill="currentColor"/>
</svg>